<?xml version="1.0" encoding="UTF-8" standalone="no"?>
<!-- Created with Inkscape (http://www.inkscape.org/) -->

<svg
   xmlns:dc="http://purl.org/dc/elements/1.1/"
   xmlns:cc="http://creativecommons.org/ns#"
   xmlns:rdf="http://www.w3.org/1999/02/22-rdf-syntax-ns#"
   xmlns:svg="http://www.w3.org/2000/svg"
   xmlns="http://www.w3.org/2000/svg"
   xmlns:sodipodi="http://sodipodi.sourceforge.net/DTD/sodipodi-0.dtd"
   xmlns:inkscape="http://www.inkscape.org/namespaces/inkscape"
   width="32"
   height="32"
   viewBox="0 0 8.4666665 8.4666669"
   version="1.1"
   id="svg8"
   inkscape:version="0.92.3 (2405546, 2018-03-11)"
   sodipodi:docname="GameObject.svg">
  <defs
     id="defs2" />
  <sodipodi:namedview
     id="base"
     pagecolor="#ffffff"
     bordercolor="#666666"
     borderopacity="1.0"
     inkscape:pageopacity="0.0"
     inkscape:pageshadow="2"
     inkscape:zoom="11.2"
     inkscape:cx="22.280606"
     inkscape:cy="1.1464933"
     inkscape:document-units="mm"
     inkscape:current-layer="layer1"
     showgrid="false"
     inkscape:window-width="1920"
     inkscape:window-height="1028"
     inkscape:window-x="0"
     inkscape:window-y="0"
     inkscape:window-maximized="1"
     units="px" />
  <metadata
     id="metadata5">
    <rdf:RDF>
      <cc:Work
         rdf:about="">
        <dc:format>image/svg+xml</dc:format>
        <dc:type
           rdf:resource="http://purl.org/dc/dcmitype/StillImage" />
        <dc:title></dc:title>
      </cc:Work>
    </rdf:RDF>
  </metadata>
  <g
     inkscape:label="Layer 1"
     inkscape:groupmode="layer"
     id="layer1"
     transform="translate(0,-288.53332)">
    <g
       transform="matrix(0.32377697,0,0,0.32377697,1.6431176,290.17644)"
       id="g31559">
      <path
         style="fill:#000000;fill-opacity:0"
         d="M 0,0.5 V 0 H 0.5 1 1.5 2 2.5 3 3.5 4 4.5 5 L 4.875,0.375 Q 4.75,0.75 4.375,0.875 4,1 3.5,1 3,1 2.875,1.375 2.75,1.75 2.375,1.875 2,2 1.875,2.375 1.75,2.75 1.375,2.875 1,3 1,3.5 1,4 0.875,4.375 0.75,4.75 0.375,4.875 L 0,5 V 4.5 4 3.5 3 2.5 2 1.5 1 0.5"
         id="path31517"
         inkscape:connector-curvature="0" />
      <path
         style="fill:#282828;fill-opacity:1"
         d="M 4.875,0.375 5,0 H 5.5 6 6.5 7 7.5 8 8.5 9 9.5 10 10.5 11 l 0.125,0.375 q 0.125,0.375 0.5,0.5 Q 12,1 12.5,1 q 0.5,0 0.625,0.375 0.125,0.375 0.5,0.5 0.375,0.125 0.5,0.5 0.125,0.375 0.5,0.5 Q 15,3 15,3.5 q 0,0.5 0.125,0.875 0.125,0.375 0.5,0.5 L 16,5 V 5.5 6 6.5 7 7.5 8 8.5 9 9.5 10 10.5 11 l -0.375,0.125 q -0.375,0.125 -0.5,0.5 Q 15,12 14.5,12 14,12 14,12.5 q 0,0.5 0,1 0,0.5 -0.375,0.625 -0.375,0.125 -0.5,0.5 -0.125,0.375 -0.5,0.5 -0.375,0.125 -0.5,0.5 L 12,16 H 11.5 11 10.5 10 9.5 9 8.5 8 7.5 7 6.5 6 5.5 5 4.5 4 L 3.875,15.625 Q 3.75,15.25 3.375,15.125 3,15 2.5,15 2,15 2,14.5 2,14 2,13.5 2,13 2,12.5 2,12 1.5,12 1,12 0.875,11.625 0.75,11.25 0.375,11.125 L 0,11 V 10.5 10 9.5 9 8.5 8 7.5 7 6.5 6 5.5 5 L 0.375,4.875 Q 0.75,4.75 0.875,4.375 1,4 1,3.5 1,3 1.375,2.875 1.75,2.75 1.875,2.375 2,2 2.375,1.875 2.75,1.75 2.875,1.375 3,1 3.5,1 4,1 4.375,0.875 4.75,0.75 4.875,0.375 M 10.5,15 Q 11,15 11.375,14.875 11.75,14.75 12,14.5 12.25,14.25 12.5,14 12.75,13.75 12.875,13.375 13,13 12.875,12.625 12.75,12.25 12.5,12 12.25,11.75 12,11.5 11.75,11.25 11.375,11.125 11,11 10.625,11.125 10.25,11.25 10.125,11.625 10,12 9.875,12.375 9.75,12.75 9.5,12.75 9.25,12.75 9.125,12.375 9,12 8.875,11.625 8.75,11.25 8.375,11.125 8,11 7.625,11.125 7.25,11.25 7.125,11.625 7,12 6.875,12.375 6.75,12.75 6.5,12.75 6.25,12.75 6.125,12.375 6,12 5.875,11.625 5.75,11.25 5.375,11.125 5,11 4.625,11.125 4.25,11.25 4,11.5 3.75,11.75 3.5,12 3.25,12.25 3.125,12.625 3,13 3.125,13.375 3.25,13.75 3.5,14 3.75,14.25 4,14.5 4.25,14.75 4.625,14.875 5,15 5.5,15 q 0.5,0 1,0 0.5,0 1,0 0.5,0 1,0 0.5,0 1,0 0.5,0 1,0 m 3,-4 q 0.5,0 0.875,-0.125 0.375,-0.125 0.5,-0.5 Q 15,10 14.9375,9.4375 L 14.875,8.875 14.8125,8.9375 14.75,9 14.875,8.875 Q 15,8.75 15,8.5 V 8.25 8.625 9 8.5 Q 15,8 15,7.5 15,7 15,6.5 15,6 14.875,5.625 14.75,5.25 14.375,5.125 L 14,5 V 4.5 Q 14,4 13.875,3.625 13.75,3.25 13.3125,3.0625 L 12.875,2.875 12.8125,2.9375 12.75,3 12.875,2.875 Q 13,2.75 13,2.5 V 2.25 2.625 3 L 12.875,2.625 Q 12.75,2.25 12.375,2.125 12,2 11.625,1.875 11.25,1.75 11,1.5 10.75,1.25 10.375,1.125 10,1 9.5,1 H 9 9.375 9.75 9.5 Q 9.25,1 9.125,1.125 L 9,1.25 9.0625,1.1875 9.125,1.125 8.5625,1.0625 Q 8,1 7.4375,1.0625 L 6.875,1.125 6.9375,1.1875 7,1.25 6.875,1.125 Q 6.75,1 6.5,1 H 6.25 6.625 7 6.5 Q 6,1 5.625,1.125 5.25,1.25 5,1.5 4.75,1.75 4.375,1.875 4,2 3.625,2.125 3.25,2.25 3.125,2.625 L 3,3 V 2.625 2.25 2.5 Q 3,2.75 3.125,2.875 L 3.25,3 3.1875,2.9375 3.125,2.875 2.6875,3.0625 Q 2.25,3.25 2.125,3.625 2,4 2,4.5 V 5 L 1.625,5.125 Q 1.25,5.25 1.125,5.625 1,6 1,6.5 1,7 1,7.5 1,8 1,8.5 V 9 8.625 8.25 8.5 Q 1,8.75 1.125,8.875 L 1.25,9 1.1875,8.9375 1.125,8.875 1.0625,9.4375 Q 1,10 1.125,10.375 1.25,10.75 1.625,10.875 2,11 2.5,11 3,11 3.375,10.875 3.75,10.75 4,10.5 4.25,10.25 4.625,10.125 5,10 5.546875,9.953125 L 6.09375,9.90625 6.015625,9.859375 5.9375,9.8125 6.09375,9.90625 Q 6.25,10 6.5,10 H 6.75 6.375 6 6.5 q 0.5,0 1,0 0.5,0 1,0 0.5,0 1,0 H 10 9.625 9.25 9.5 Q 9.75,10 9.90625,9.90625 L 10.0625,9.8125 9.984375,9.859375 9.90625,9.90625 10.453125,9.953125 Q 11,10 11.375,10.125 11.75,10.25 12,10.5 12.25,10.75 12.625,10.875 13,11 13.5,11"
         id="path31519"
         inkscape:connector-curvature="0" />
      <path
         style="fill:#000000;fill-opacity:0"
         d="M 11.125,0.375 11,0 H 11.5 12 12.5 13 13.5 14 14.5 15 15.5 16 V 0.5 1 1.5 2 2.5 3 3.5 4 4.5 5 L 15.625,4.875 Q 15.25,4.75 15.125,4.375 15,4 15,3.5 15,3 14.625,2.875 14.25,2.75 14.125,2.375 14,2 13.625,1.875 13.25,1.75 13.125,1.375 13,1 12.5,1 12,1 11.625,0.875 11.25,0.75 11.125,0.375"
         id="path31521"
         inkscape:connector-curvature="0" />
      <path
         style="fill:#f8f8f8;fill-opacity:1"
         d="M 5,1.5 Q 5.25,1.25 5.625,1.125 6,1 6.5,1 7,1 7,1.5 7,2 6.625,2.125 6.25,2.25 6,2.5 5.75,2.75 5.375,2.875 5,3 4.5,3 4,3 3.5,3 3,3 3.125,2.625 3.25,2.25 3.625,2.125 4,2 4.375,1.875 4.75,1.75 5,1.5"
         id="path31523"
         inkscape:connector-curvature="0" />
      <path
         style="fill:#a81000;fill-opacity:1"
         d="M 7,1.5 V 1 1.375 1.75 1.5 Q 7,1.25 6.875,1.125 L 6.75,1 6.8125,1.0625 6.875,1.125 7.4375,1.0625 Q 8,1 8.5625,1.0625 L 9.125,1.125 9.1875,1.0625 9.25,1 9.125,1.125 Q 9,1.25 9,1.5 V 1.75 1.375 1 1.5 2 1.625 1.25 1.5 Q 9,1.75 9.09375,1.90625 L 9.1875,2.0625 9.140625,1.984375 9.09375,1.90625 8.546875,1.953125 Q 8,2 7.453125,1.953125 L 6.90625,1.90625 6.859375,1.984375 6.8125,2.0625 6.90625,1.90625 Q 7,1.75 7,1.5 V 1.25 1.625 2 1.5"
         id="path31525"
         inkscape:connector-curvature="0" />
      <path
         style="fill:#f8f8f8;fill-opacity:1"
         d="M 9,1.5 Q 9,1 9.5,1 10,1 10.375,1.125 10.75,1.25 11,1.5 11.25,1.75 11.625,1.875 12,2 12.375,2.125 12.75,2.25 12.875,2.625 13,3 12.5,3 12,3 11.5,3 11,3 10.625,2.875 10.25,2.75 10,2.5 9.75,2.25 9.375,2.125 9,2 9,1.5"
         id="path31527"
         inkscape:connector-curvature="0" />
      <path
         style="fill:#f00818;fill-opacity:1"
         d="M 6,2.5 Q 6.25,2.25 6.625,2.125 L 7,2 6.71875,2.09375 6.4375,2.1875 6.625,2.125 Q 6.8125,2.0625 6.90625,1.90625 L 7,1.75 6.953125,1.828125 6.90625,1.90625 7.453125,1.953125 Q 8,2 8.546875,1.953125 L 9.09375,1.90625 9.046875,1.828125 9,1.75 9.09375,1.90625 Q 9.1875,2.0625 9.375,2.125 L 9.5625,2.1875 9.28125,2.09375 9,2 9.375,2.125 Q 9.75,2.25 10,2.5 10.25,2.75 10.625,2.875 11,3 11.5,3 H 12 l 0.125,0.375 Q 12.25,3.75 12.5,4 12.75,4.25 13,4.5 13.25,4.75 13.625,4.875 L 14,5 13.875,5.375 Q 13.75,5.75 13.5,6 13.25,6.25 13.125,6.625 13,7 13.125,7.375 13.25,7.75 13.5,8 13.75,8.25 13.875,8.625 L 14,9 13.90625,8.71875 13.8125,8.4375 13.875,8.625 q 0.0625,0.1875 0.21875,0.28125 L 14.25,9 14.171875,8.953125 14.09375,8.90625 13.921875,9.328125 Q 13.75,9.75 13.375,9.875 13,10 12.625,9.875 12.25,9.75 12,9.5 11.75,9.25 11.328125,9.078125 L 10.90625,8.90625 10.859375,8.984375 10.8125,9.0625 10.90625,8.90625 Q 11,8.75 11,8.5 V 8.25 8.625 9 8.5 8 L 11.375,7.875 Q 11.75,7.75 11.875,7.375 12,7 12,6.5 12,6 11.875,5.625 11.75,5.25 11.5,5 11.25,4.75 11,4.5 10.75,4.25 10.5,4 10.25,3.75 10,3.5 9.75,3.25 9.375,3.125 9,3 8.5,3 8,3 7.5,3 7,3 6.625,3.125 6.25,3.25 6,3.5 5.75,3.75 5.5,4 5.25,4.25 5,4.5 4.75,4.75 4.5,5 4.25,5.25 4.125,5.625 4,6 4,6.5 4,7 4.125,7.375 4.25,7.75 4.625,7.875 L 5,8 V 8.5 9 8.625 8.25 8.5 Q 5,8.75 5.09375,8.90625 L 5.1875,9.0625 5.140625,8.984375 5.09375,8.90625 4.671875,9.078125 Q 4.25,9.25 4,9.5 3.75,9.75 3.375,9.875 3,10 2.625,9.875 2.25,9.75 2.078125,9.328125 L 1.90625,8.90625 1.828125,8.953125 1.75,9 1.90625,8.90625 Q 2.0625,8.8125 2.125,8.625 L 2.1875,8.4375 2.09375,8.71875 2,9 2.125,8.625 Q 2.25,8.25 2.5,8 2.75,7.75 2.875,7.375 3,7 2.875,6.625 2.75,6.25 2.5,6 2.25,5.75 2.125,5.375 L 2,5 2.375,4.875 Q 2.75,4.75 3,4.5 3.25,4.25 3.5,4 3.75,3.75 3.875,3.375 L 4,3 H 4.5 Q 5,3 5.375,2.875 5.75,2.75 6,2.5 M 4.375,3 H 4 3.875 3.75 4 Q 4.25,3 4.5,3 H 4.75 4.375 M 5,8.375 V 8 7.875 7.75 8 Q 5,8.25 5,8.5 V 8.75 8.375 m 6,-0.5 V 8 8.375 8.75 8.5 Q 11,8.25 11,8 V 7.75 7.875 M 12.125,3 H 12 11.625 11.25 11.5 q 0.25,0 0.5,0 h 0.25 -0.125"
         id="path31529"
         inkscape:connector-curvature="0" />
      <path
         style="fill:#a81000;fill-opacity:1"
         d="M 2.125,3.625 Q 2.25,3.25 2.6875,3.0625 L 3.125,2.875 3.0625,2.8125 3,2.75 3.125,2.875 Q 3.25,3 3.5,3 H 3.75 3.375 3 3.5 4 L 3.875,3.375 Q 3.75,3.75 3.5,4 3.25,4.25 3,4.5 2.75,4.75 2.375,4.875 L 2,5 V 4.5 Q 2,4 2.125,3.625 M 4.125,3 H 4 3.625 3.25 3.5 Q 3.75,3 4,3 H 4.25 4.125"
         id="path31531"
         inkscape:connector-curvature="0" />
      <path
         style="fill:#f86078;fill-opacity:1"
         d="M 6,3.5 Q 6.25,3.25 6.625,3.125 7,3 7.5,3 8,3 8.5,3 9,3 9.375,3.125 9.75,3.25 10,3.5 10.25,3.75 10.5,4 10.75,4.25 11,4.5 11.25,4.75 11.5,5 11.75,5.25 11.875,5.625 12,6 12,6.5 12,7 11.875,7.375 11.75,7.75 11.375,7.875 L 11,8 V 7.5 Q 11,7 10.875,6.625 10.75,6.25 10.5,6 10.25,5.75 10,5.5 9.75,5.25 9.375,5.125 9,5 8.5,5 8,5 7.5,5 7,5 6.625,5.125 6.25,5.25 6,5.5 5.75,5.75 5.5,6 5.25,6.25 5.125,6.625 5,7 5,7.5 V 8 L 4.625,7.875 Q 4.25,7.75 4.125,7.375 4,7 4,6.5 4,6 4.125,5.625 4.25,5.25 4.5,5 4.75,4.75 5,4.5 5.25,4.25 5.5,4 5.75,3.75 6,3.5 M 5,8.125 V 8 7.625 7.25 7.5 Q 5,7.75 5,8 V 8.25 8.125 m 6,-0.5 V 8 8.125 8.25 8 Q 11,7.75 11,7.5 V 7.25 7.625"
         id="path31533"
         inkscape:connector-curvature="0" />
      <path
         style="fill:#a81000;fill-opacity:1"
         d="M 12.125,3.375 12,3 H 12.5 13 12.625 12.25 12.5 q 0.25,0 0.375,-0.125 L 13,2.75 12.9375,2.8125 12.875,2.875 13.3125,3.0625 Q 13.75,3.25 13.875,3.625 14,4 14,4.5 V 5 L 13.625,4.875 Q 13.25,4.75 13,4.5 12.75,4.25 12.5,4 12.25,3.75 12.125,3.375 M 12.375,3 H 12 11.875 11.75 12 q 0.25,0 0.5,0 h 0.25 -0.375"
         id="path31535"
         inkscape:connector-curvature="0" />
      <path
         style="fill:#f8f8f8;fill-opacity:1"
         d="M 1.125,5.625 Q 1.25,5.25 1.625,5.125 L 2,5 2.125,5.375 Q 2.25,5.75 2.5,6 2.75,6.25 2.875,6.625 3,7 2.875,7.375 2.75,7.75 2.5,8 2.25,8.25 2.125,8.625 2,9 1.5,9 1,9 1,8.5 1,8 1,7.5 1,7 1,6.5 1,6 1.125,5.625"
         id="path31537"
         inkscape:connector-curvature="0" />
      <path
         style="fill:#f8f8f8;fill-opacity:1"
         d="M 6,5.5 Q 6.25,5.25 6.625,5.125 7,5 7.5,5 8,5 8.5,5 9,5 9.375,5.125 9.75,5.25 10,5.5 10.25,5.75 10.5,6 10.75,6.25 10.875,6.625 11,7 11,7.5 11,8 11,8.5 11,9 10.625,9.125 10.25,9.25 10.125,9.625 10,10 9.5,10 9,10 8.5,10 8,10 7.5,10 7,10 6.5,10 6,10 5.875,9.625 5.75,9.25 5.375,9.125 5,9 5,8.5 5,8 5,7.5 5,7 5.125,6.625 5.25,6.25 5.5,6 5.75,5.75 6,5.5"
         id="path31539"
         inkscape:connector-curvature="0" />
      <path
         style="fill:#f8f8f8;fill-opacity:1"
         d="M 13.875,5.375 14,5 14.375,5.125 q 0.375,0.125 0.5,0.5 Q 15,6 15,6.5 15,7 15,7.5 15,8 15,8.5 15,9 14.5,9 14,9 13.875,8.625 13.75,8.25 13.5,8 13.25,7.75 13.125,7.375 13,7 13.125,6.625 13.25,6.25 13.5,6 13.75,5.75 13.875,5.375"
         id="path31541"
         inkscape:connector-curvature="0" />
      <path
         style="fill:#a81000;fill-opacity:1"
         d="M 1.0625,9.4375 1.125,8.875 1.0625,8.8125 1,8.75 1.125,8.875 Q 1.25,9 1.5,9 H 1.75 1.375 1 1.5 2 1.625 1.25 1.5 Q 1.75,9 1.90625,8.90625 L 2.0625,8.8125 1.984375,8.859375 1.90625,8.90625 2.078125,9.328125 Q 2.25,9.75 2.625,9.875 3,10 3.375,9.875 3.75,9.75 4,9.5 4.25,9.25 4.671875,9.078125 L 5.09375,8.90625 5.046875,8.828125 5,8.75 5.09375,8.90625 Q 5.1875,9.0625 5.375,9.125 L 5.5625,9.1875 5.28125,9.09375 5,9 5.375,9.125 q 0.375,0.125 0.5,0.5 L 6,10 5.90625,9.71875 5.8125,9.4375 5.875,9.625 Q 5.9375,9.8125 6.09375,9.90625 L 6.25,10 6.171875,9.953125 6.09375,9.90625 5.546875,9.953125 Q 5,10 4.625,10.125 4.25,10.25 4,10.5 3.75,10.75 3.375,10.875 3,11 2.5,11 2,11 1.625,10.875 1.25,10.75 1.125,10.375 1,10 1.0625,9.4375"
         id="path31543"
         inkscape:connector-curvature="0" />
      <path
         style="fill:#a81000;fill-opacity:1"
         d="m 10.125,9.625 q 0.125,-0.375 0.5,-0.5 L 11,9 10.71875,9.09375 10.4375,9.1875 10.625,9.125 Q 10.8125,9.0625 10.90625,8.90625 L 11,8.75 10.953125,8.828125 10.90625,8.90625 11.328125,9.078125 Q 11.75,9.25 12,9.5 12.25,9.75 12.625,9.875 13,10 13.375,9.875 13.75,9.75 13.921875,9.328125 L 14.09375,8.90625 14.015625,8.859375 13.9375,8.8125 14.09375,8.90625 Q 14.25,9 14.5,9 H 14.75 14.375 14 14.5 15 14.625 14.25 14.5 q 0.25,0 0.375,-0.125 L 15,8.75 14.9375,8.8125 14.875,8.875 14.9375,9.4375 Q 15,10 14.875,10.375 14.75,10.75 14.375,10.875 14,11 13.5,11 13,11 12.625,10.875 12.25,10.75 12,10.5 11.75,10.25 11.375,10.125 11,10 10.453125,9.953125 L 9.90625,9.90625 9.828125,9.953125 9.75,10 9.90625,9.90625 Q 10.0625,9.8125 10.125,9.625 L 10.1875,9.4375 10.09375,9.71875 10,10 10.125,9.625"
         id="path31545"
         inkscape:connector-curvature="0" />
      <path
         style="fill:#000000;fill-opacity:0"
         d="M 0,11.5 V 11 l 0.375,0.125 q 0.375,0.125 0.5,0.5 Q 1,12 1.5,12 2,12 2,12.5 q 0,0.5 0,1 0,0.5 0,1 0,0.5 0.5,0.5 0.5,0 0.875,0.125 0.375,0.125 0.5,0.5 L 4,16 H 3.5 3 2.5 2 1.5 1 0.5 0 V 15.5 15 14.5 14 13.5 13 12.5 12 11.5"
         id="path31547"
         inkscape:connector-curvature="0" />
      <path
         style="fill:#f8b080;fill-opacity:1"
         d="m 4,11.5 q 0.25,-0.25 0.625,-0.375 0.375,-0.125 0.75,0 0.375,0.125 0.5,0.5 L 6,12 H 5.5 Q 5,12 4.625,12.125 4.25,12.25 4.125,12.625 4,13 4.125,13.375 4.25,13.75 4.5,14 4.75,14.25 4.890625,14.609375 L 5.03125,14.96875 5.140625,14.984375 5.25,15 5.03125,14.96875 Q 4.8125,14.9375 4.625,14.875 L 4.4375,14.8125 4.71875,14.90625 5,15 4.625,14.875 Q 4.25,14.75 4,14.5 3.75,14.25 3.5,14 3.25,13.75 3.125,13.375 3,13 3.125,12.625 3.25,12.25 3.5,12 3.75,11.75 4,11.5 M 6.03125,12.09375 6,12 5.90625,11.71875 5.8125,11.4375 5.875,11.625 Q 5.9375,11.8125 6,12 l 0.0625,0.1875 -0.03125,-0.09375"
         id="path31549"
         inkscape:connector-curvature="0" />
      <path
         style="fill:#f8b080;fill-opacity:1"
         d="m 7.125,11.625 q 0.125,-0.375 0.5,-0.5 0.375,-0.125 0.75,0 0.375,0.125 0.5,0.5 L 9,12 H 8.5 Q 8,12 7.5,12 H 7 L 7.125,11.625 M 7.09375,11.71875 7,12 6.96875,12.09375 6.9375,12.1875 7,12 q 0.0625,-0.1875 0.125,-0.375 l 0.0625,-0.1875 -0.09375,0.28125 m 1.9375,0.375 L 9,12 8.90625,11.71875 8.8125,11.4375 8.875,11.625 Q 8.9375,11.8125 9,12 l 0.0625,0.1875 -0.03125,-0.09375"
         id="path31551"
         inkscape:connector-curvature="0" />
      <path
         style="fill:#f8b080;fill-opacity:1"
         d="m 10.125,11.625 q 0.125,-0.375 0.5,-0.5 0.375,-0.125 0.75,0 0.375,0.125 0.625,0.375 0.25,0.25 0.5,0.5 0.25,0.25 0.375,0.625 0.125,0.375 0,0.75 Q 12.75,13.75 12.5,14 12.25,14.25 12,14.5 11.75,14.75 11.375,14.875 L 11,15 11.28125,14.90625 11.5625,14.8125 11.375,14.875 q -0.1875,0.0625 -0.40625,0.09375 L 10.75,15 10.859375,14.98437 10.96875,14.96874 11.109375,14.609365 Q 11.25,14.25 11.5,14 11.75,13.75 11.875,13.375 12,13 11.875,12.625 11.75,12.25 11.375,12.125 11,12 10.5,12 H 10 l 0.125,-0.375 M 10.09375,11.71875 10,12 9.96875,12.09375 9.9375,12.1875 10,12 q 0.0625,-0.1875 0.125,-0.375 l 0.0625,-0.1875 -0.09375,0.28125"
         id="path31553"
         inkscape:connector-curvature="0" />
      <path
         style="fill:#000000;fill-opacity:0"
         d="m 15.125,11.625 q 0.125,-0.375 0.5,-0.5 L 16,11 V 11.5 12 12.5 13 13.5 14 14.5 15 15.5 16 H 15.5 15 14.5 14 13.5 13 12.5 12 l 0.125,-0.375 q 0.125,-0.375 0.5,-0.5 0.375,-0.125 0.5,-0.5 0.125,-0.375 0.5,-0.5 Q 14,14 14,13.5 14,13 14,12.5 14,12 14.5,12 15,12 15.125,11.625"
         id="path31555"
         inkscape:connector-curvature="0" />
      <path
         style="fill:#f8f8f8;fill-opacity:1"
         d="M 4.125,12.625 Q 4.25,12.25 4.625,12.125 5,12 5.5,12 H 6 l 0.125,0.375 Q 6.25,12.75 6.5,12.75 q 0.25,0 0.375,-0.375 L 7,12 h 0.5 q 0.5,0 1,0 H 9 l 0.125,0.375 Q 9.25,12.75 9.5,12.75 q 0.25,0 0.375,-0.375 L 10,12 h 0.5 q 0.5,0 0.875,0.125 0.375,0.125 0.5,0.5 0.125,0.375 0,0.75 Q 11.75,13.75 11.5,14 11.25,14.25 11.109375,14.609375 L 10.96875,14.96875 11.078125,14.953125 11.1875,14.9375 10.96875,14.96875 Q 10.75,15 10.5,15 H 10.25 10.625 11 10.5 q -0.5,0 -1,0 -0.5,0 -1,0 -0.5,0 -1,0 -0.5,0 -1,0 -0.5,0 -1,0 H 5 5.375 5.75 5.5 Q 5.25,15 5.03125,14.96875 L 4.8125,14.9375 4.921875,14.953125 5.03125,14.96875 4.890625,14.609375 Q 4.75,14.25 4.5,14 4.25,13.75 4.125,13.375 4,13 4.125,12.625 M 10.03125,11.90625 10,12 9.90625,12.28125 9.8125,12.5625 9.875,12.375 Q 9.9375,12.1875 10,12 l 0.0625,-0.1875 -0.03125,0.09375 m -0.9375,0.375 L 9,12 8.96875,11.90625 8.9375,11.8125 9,12 q 0.0625,0.1875 0.125,0.375 L 9.1875,12.5625 9.09375,12.28125 M 7.03125,11.90625 7,12 6.90625,12.28125 6.8125,12.5625 6.875,12.375 Q 6.9375,12.1875 7,12 l 0.0625,-0.1875 -0.03125,0.09375 m -0.9375,0.375 L 6,12 5.96875,11.90625 5.9375,11.8125 6,12 q 0.0625,0.1875 0.125,0.375 l 0.0625,0.1875 -0.09375,-0.28125"
         id="path31557"
         inkscape:connector-curvature="0" />
    </g>
  </g>
</svg>
